<mxfile host="app.diagrams.net" agent="Mozilla/5.0 (Macintosh; Intel Mac OS X 10_15_7) AppleWebKit/537.36 (KHTML, like Gecko) Chrome/129.0.0.0 Safari/537.36" version="24.7.17">
  <diagram name="Page-1" id="HEH0be-vvaHjGvdlE3Nt">
    <mxGraphModel dx="2213" dy="2013" grid="1" gridSize="10" guides="1" tooltips="1" connect="1" arrows="1" fold="1" page="1" pageScale="1" pageWidth="850" pageHeight="1100" math="0" shadow="0">
      <root>
        <mxCell id="0" />
        <mxCell id="1" parent="0" />
        <mxCell id="it1YccBrq72vr2STVT6A-72" style="edgeStyle=orthogonalEdgeStyle;rounded=0;orthogonalLoop=1;jettySize=auto;html=1;exitX=0.5;exitY=1;exitDx=0;exitDy=0;exitPerimeter=0;entryX=0.75;entryY=1;entryDx=0;entryDy=0;" edge="1" parent="1" source="it1YccBrq72vr2STVT6A-2" target="it1YccBrq72vr2STVT6A-45">
          <mxGeometry relative="1" as="geometry">
            <Array as="points">
              <mxPoint x="50" y="360" />
              <mxPoint x="805" y="360" />
            </Array>
          </mxGeometry>
        </mxCell>
        <mxCell id="it1YccBrq72vr2STVT6A-73" value="Retrieve locomotive summary data" style="edgeLabel;html=1;align=center;verticalAlign=middle;resizable=0;points=[];" vertex="1" connectable="0" parent="it1YccBrq72vr2STVT6A-72">
          <mxGeometry x="-0.3796" y="3" relative="1" as="geometry">
            <mxPoint x="1" as="offset" />
          </mxGeometry>
        </mxCell>
        <mxCell id="it1YccBrq72vr2STVT6A-2" value="MongoDB" style="strokeWidth=2;html=1;shape=mxgraph.flowchart.database;whiteSpace=wrap;" vertex="1" parent="1">
          <mxGeometry x="20" y="200" width="60" height="60" as="geometry" />
        </mxCell>
        <mxCell id="it1YccBrq72vr2STVT6A-70" style="edgeStyle=orthogonalEdgeStyle;rounded=0;orthogonalLoop=1;jettySize=auto;html=1;exitX=0;exitY=0.5;exitDx=0;exitDy=0;exitPerimeter=0;entryX=0.75;entryY=1;entryDx=0;entryDy=0;" edge="1" parent="1" source="it1YccBrq72vr2STVT6A-3" target="it1YccBrq72vr2STVT6A-45">
          <mxGeometry relative="1" as="geometry">
            <Array as="points">
              <mxPoint y="130" />
              <mxPoint y="390" />
              <mxPoint x="805" y="390" />
            </Array>
          </mxGeometry>
        </mxCell>
        <mxCell id="it1YccBrq72vr2STVT6A-71" value="Retrive locomotive data" style="edgeLabel;html=1;align=center;verticalAlign=middle;resizable=0;points=[];" vertex="1" connectable="0" parent="it1YccBrq72vr2STVT6A-70">
          <mxGeometry x="0.3108" relative="1" as="geometry">
            <mxPoint x="-145" as="offset" />
          </mxGeometry>
        </mxCell>
        <mxCell id="it1YccBrq72vr2STVT6A-3" value="PostgreSQL" style="strokeWidth=2;html=1;shape=mxgraph.flowchart.database;whiteSpace=wrap;" vertex="1" parent="1">
          <mxGeometry x="20" y="100" width="60" height="60" as="geometry" />
        </mxCell>
        <mxCell id="it1YccBrq72vr2STVT6A-33" style="edgeStyle=orthogonalEdgeStyle;rounded=0;orthogonalLoop=1;jettySize=auto;html=1;exitX=0;exitY=0.25;exitDx=0;exitDy=0;entryX=1;entryY=0.25;entryDx=0;entryDy=0;" edge="1" parent="1" source="it1YccBrq72vr2STVT6A-4" target="it1YccBrq72vr2STVT6A-7">
          <mxGeometry relative="1" as="geometry">
            <Array as="points">
              <mxPoint x="520" y="33" />
              <mxPoint x="520" y="163" />
            </Array>
          </mxGeometry>
        </mxCell>
        <mxCell id="it1YccBrq72vr2STVT6A-34" value="&lt;span style=&quot;font-size: 12px; text-wrap: wrap; background-color: rgb(251, 251, 251);&quot;&gt;Store dummy data to PostgreSQL via Kafka&lt;/span&gt;" style="edgeLabel;html=1;align=center;verticalAlign=middle;resizable=0;points=[];" vertex="1" connectable="0" parent="it1YccBrq72vr2STVT6A-33">
          <mxGeometry x="-0.1929" y="3" relative="1" as="geometry">
            <mxPoint x="13" y="-1" as="offset" />
          </mxGeometry>
        </mxCell>
        <mxCell id="it1YccBrq72vr2STVT6A-55" style="edgeStyle=orthogonalEdgeStyle;rounded=0;orthogonalLoop=1;jettySize=auto;html=1;exitX=0.5;exitY=0;exitDx=0;exitDy=0;entryX=0.75;entryY=0;entryDx=0;entryDy=0;" edge="1" parent="1" source="it1YccBrq72vr2STVT6A-4" target="it1YccBrq72vr2STVT6A-7">
          <mxGeometry relative="1" as="geometry">
            <Array as="points">
              <mxPoint x="780" y="-20" />
              <mxPoint x="465" y="-20" />
            </Array>
          </mxGeometry>
        </mxCell>
        <mxCell id="it1YccBrq72vr2STVT6A-56" value="&lt;span style=&quot;color: rgba(0, 0, 0, 0); font-family: monospace; font-size: 0px; text-align: start; background-color: rgb(251, 251, 251);&quot;&gt;%3CmxGraphModel%3E%3Croot%3E%3CmxCell%20id%3D%220%22%2F%3E%3CmxCell%20id%3D%221%22%20parent%3D%220%22%2F%3E%3CmxCell%20id%3D%222%22%20value%3D%22Logging%20application%20using%20kafka%22%20style%3D%22edgeLabel%3Bhtml%3D1%3Balign%3Dcenter%3BverticalAlign%3Dmiddle%3Bresizable%3D0%3Bpoints%3D%5B%5D%3B%22%20vertex%3D%221%22%20connectable%3D%220%22%20parent%3D%221%22%3E%3CmxGeometry%20x%3D%22660%22%20y%3D%22340%22%20as%3D%22geometry%22%2F%3E%3C%2FmxCell%3E%3C%2Froot%3E%3C%2FmxGraphModel%3E&lt;/span&gt;" style="edgeLabel;html=1;align=center;verticalAlign=middle;resizable=0;points=[];" vertex="1" connectable="0" parent="it1YccBrq72vr2STVT6A-55">
          <mxGeometry x="-0.3005" y="-2" relative="1" as="geometry">
            <mxPoint as="offset" />
          </mxGeometry>
        </mxCell>
        <mxCell id="it1YccBrq72vr2STVT6A-57" value="Logging application using kafka" style="edgeLabel;html=1;align=center;verticalAlign=middle;resizable=0;points=[];" vertex="1" connectable="0" parent="it1YccBrq72vr2STVT6A-55">
          <mxGeometry x="-0.5262" y="-1" relative="1" as="geometry">
            <mxPoint x="-25" as="offset" />
          </mxGeometry>
        </mxCell>
        <mxCell id="it1YccBrq72vr2STVT6A-4" value="Spring Boot&lt;div&gt;for Scheduler&lt;br&gt;(Dummy Data)&lt;/div&gt;" style="rounded=1;whiteSpace=wrap;html=1;absoluteArcSize=1;arcSize=14;strokeWidth=2;" vertex="1" parent="1">
          <mxGeometry x="730" y="20" width="100" height="50" as="geometry" />
        </mxCell>
        <mxCell id="it1YccBrq72vr2STVT6A-46" style="edgeStyle=orthogonalEdgeStyle;rounded=0;orthogonalLoop=1;jettySize=auto;html=1;exitX=0;exitY=0.5;exitDx=0;exitDy=0;entryX=1;entryY=0.5;entryDx=0;entryDy=0;" edge="1" parent="1" source="it1YccBrq72vr2STVT6A-7" target="it1YccBrq72vr2STVT6A-13">
          <mxGeometry relative="1" as="geometry" />
        </mxCell>
        <mxCell id="it1YccBrq72vr2STVT6A-49" style="edgeStyle=orthogonalEdgeStyle;rounded=0;orthogonalLoop=1;jettySize=auto;html=1;exitX=1;exitY=0.5;exitDx=0;exitDy=0;entryX=0;entryY=0.5;entryDx=0;entryDy=0;" edge="1" parent="1" source="it1YccBrq72vr2STVT6A-7" target="it1YccBrq72vr2STVT6A-45">
          <mxGeometry relative="1" as="geometry">
            <Array as="points">
              <mxPoint x="710" y="175" />
              <mxPoint x="710" y="175" />
            </Array>
          </mxGeometry>
        </mxCell>
        <mxCell id="it1YccBrq72vr2STVT6A-7" value="Kafka" style="rounded=1;whiteSpace=wrap;html=1;absoluteArcSize=1;arcSize=14;strokeWidth=2;" vertex="1" parent="1">
          <mxGeometry x="390" y="150" width="100" height="50" as="geometry" />
        </mxCell>
        <mxCell id="it1YccBrq72vr2STVT6A-10" value="Locomotive" style="strokeWidth=2;html=1;shape=mxgraph.flowchart.stored_data;whiteSpace=wrap;" vertex="1" parent="1">
          <mxGeometry x="120" y="110" width="70" height="40" as="geometry" />
        </mxCell>
        <mxCell id="it1YccBrq72vr2STVT6A-12" style="edgeStyle=orthogonalEdgeStyle;rounded=0;orthogonalLoop=1;jettySize=auto;html=1;exitX=0;exitY=0.5;exitDx=0;exitDy=0;exitPerimeter=0;entryX=1;entryY=0.5;entryDx=0;entryDy=0;entryPerimeter=0;" edge="1" parent="1" source="it1YccBrq72vr2STVT6A-10" target="it1YccBrq72vr2STVT6A-3">
          <mxGeometry relative="1" as="geometry" />
        </mxCell>
        <mxCell id="it1YccBrq72vr2STVT6A-13" value="NodeJS&lt;div&gt;(Store to DB)&lt;/div&gt;" style="rounded=1;whiteSpace=wrap;html=1;absoluteArcSize=1;arcSize=14;strokeWidth=2;" vertex="1" parent="1">
          <mxGeometry x="240" y="150" width="100" height="50" as="geometry" />
        </mxCell>
        <mxCell id="it1YccBrq72vr2STVT6A-19" value="Locomotive&lt;br&gt;(Summary)" style="strokeWidth=2;html=1;shape=mxgraph.flowchart.stored_data;whiteSpace=wrap;" vertex="1" parent="1">
          <mxGeometry x="120" y="210" width="70" height="40" as="geometry" />
        </mxCell>
        <mxCell id="it1YccBrq72vr2STVT6A-21" style="edgeStyle=orthogonalEdgeStyle;rounded=0;orthogonalLoop=1;jettySize=auto;html=1;exitX=0;exitY=0.5;exitDx=0;exitDy=0;exitPerimeter=0;entryX=1;entryY=0.5;entryDx=0;entryDy=0;entryPerimeter=0;" edge="1" parent="1" source="it1YccBrq72vr2STVT6A-19" target="it1YccBrq72vr2STVT6A-2">
          <mxGeometry relative="1" as="geometry">
            <mxPoint x="90" y="230" as="targetPoint" />
          </mxGeometry>
        </mxCell>
        <mxCell id="it1YccBrq72vr2STVT6A-41" style="edgeStyle=orthogonalEdgeStyle;rounded=0;orthogonalLoop=1;jettySize=auto;html=1;exitX=0;exitY=0.25;exitDx=0;exitDy=0;entryX=0.93;entryY=0.5;entryDx=0;entryDy=0;entryPerimeter=0;" edge="1" parent="1" source="it1YccBrq72vr2STVT6A-13" target="it1YccBrq72vr2STVT6A-10">
          <mxGeometry relative="1" as="geometry" />
        </mxCell>
        <mxCell id="it1YccBrq72vr2STVT6A-42" style="edgeStyle=orthogonalEdgeStyle;rounded=0;orthogonalLoop=1;jettySize=auto;html=1;exitX=0;exitY=0.75;exitDx=0;exitDy=0;entryX=0.93;entryY=0.5;entryDx=0;entryDy=0;entryPerimeter=0;" edge="1" parent="1" source="it1YccBrq72vr2STVT6A-13" target="it1YccBrq72vr2STVT6A-19">
          <mxGeometry relative="1" as="geometry">
            <Array as="points">
              <mxPoint x="210" y="188" />
              <mxPoint x="210" y="230" />
            </Array>
          </mxGeometry>
        </mxCell>
        <mxCell id="it1YccBrq72vr2STVT6A-50" style="edgeStyle=orthogonalEdgeStyle;rounded=0;orthogonalLoop=1;jettySize=auto;html=1;exitX=0;exitY=0.75;exitDx=0;exitDy=0;entryX=1;entryY=0.75;entryDx=0;entryDy=0;" edge="1" parent="1" source="it1YccBrq72vr2STVT6A-45" target="it1YccBrq72vr2STVT6A-7">
          <mxGeometry relative="1" as="geometry">
            <Array as="points">
              <mxPoint x="720" y="188" />
              <mxPoint x="720" y="270" />
              <mxPoint x="520" y="270" />
              <mxPoint x="520" y="188" />
            </Array>
          </mxGeometry>
        </mxCell>
        <mxCell id="it1YccBrq72vr2STVT6A-53" style="edgeStyle=orthogonalEdgeStyle;rounded=0;orthogonalLoop=1;jettySize=auto;html=1;exitX=0.5;exitY=1;exitDx=0;exitDy=0;entryX=0.75;entryY=1;entryDx=0;entryDy=0;" edge="1" parent="1" source="it1YccBrq72vr2STVT6A-45" target="it1YccBrq72vr2STVT6A-7">
          <mxGeometry relative="1" as="geometry">
            <Array as="points">
              <mxPoint x="780" y="340" />
              <mxPoint x="465" y="340" />
            </Array>
          </mxGeometry>
        </mxCell>
        <mxCell id="it1YccBrq72vr2STVT6A-54" value="Logging application using kafka" style="edgeLabel;html=1;align=center;verticalAlign=middle;resizable=0;points=[];" vertex="1" connectable="0" parent="it1YccBrq72vr2STVT6A-53">
          <mxGeometry x="-0.1268" relative="1" as="geometry">
            <mxPoint as="offset" />
          </mxGeometry>
        </mxCell>
        <mxCell id="it1YccBrq72vr2STVT6A-45" value="Spring Boot&lt;br&gt;(Service)" style="rounded=1;whiteSpace=wrap;html=1;absoluteArcSize=1;arcSize=14;strokeWidth=2;" vertex="1" parent="1">
          <mxGeometry x="730" y="150" width="100" height="50" as="geometry" />
        </mxCell>
        <mxCell id="it1YccBrq72vr2STVT6A-48" value="&lt;span style=&quot;font-size: 12px; text-wrap: wrap; background-color: rgb(251, 251, 251);&quot;&gt;Listen for latest locomotive data from scheduler via kafka&lt;/span&gt;" style="edgeLabel;html=1;align=center;verticalAlign=middle;resizable=0;points=[];" vertex="1" connectable="0" parent="1">
          <mxGeometry x="650" y="175" as="geometry" />
        </mxCell>
        <mxCell id="it1YccBrq72vr2STVT6A-51" value="&lt;span style=&quot;font-size: 12px; text-wrap: wrap; background-color: rgb(251, 251, 251);&quot;&gt;Store locomotiv&lt;/span&gt;&lt;span style=&quot;background-color: rgb(251, 251, 251); font-size: 12px; text-wrap: wrap;&quot;&gt;e summary data to MongoDB via kafka&lt;/span&gt;" style="edgeLabel;html=1;align=center;verticalAlign=middle;resizable=0;points=[];" vertex="1" connectable="0" parent="1">
          <mxGeometry x="570" y="270" as="geometry" />
        </mxCell>
        <mxCell id="it1YccBrq72vr2STVT6A-58" value="Telegram" style="strokeWidth=2;html=1;shape=mxgraph.flowchart.display;whiteSpace=wrap;" vertex="1" parent="1">
          <mxGeometry x="910" y="250" width="100" height="60" as="geometry" />
        </mxCell>
        <mxCell id="it1YccBrq72vr2STVT6A-59" value="Web" style="strokeWidth=2;html=1;shape=mxgraph.flowchart.display;whiteSpace=wrap;" vertex="1" parent="1">
          <mxGeometry x="910" y="60" width="100" height="60" as="geometry" />
        </mxCell>
        <mxCell id="it1YccBrq72vr2STVT6A-60" style="edgeStyle=orthogonalEdgeStyle;rounded=0;orthogonalLoop=1;jettySize=auto;html=1;exitX=1;exitY=0.25;exitDx=0;exitDy=0;entryX=0;entryY=0.5;entryDx=0;entryDy=0;entryPerimeter=0;" edge="1" parent="1" source="it1YccBrq72vr2STVT6A-45" target="it1YccBrq72vr2STVT6A-59">
          <mxGeometry relative="1" as="geometry" />
        </mxCell>
        <mxCell id="it1YccBrq72vr2STVT6A-62" value="Real-time locomotive summary data&amp;nbsp;&lt;div&gt;using websocket&lt;/div&gt;" style="edgeLabel;html=1;align=center;verticalAlign=middle;resizable=0;points=[];" vertex="1" connectable="0" parent="it1YccBrq72vr2STVT6A-60">
          <mxGeometry x="-0.0184" y="-1" relative="1" as="geometry">
            <mxPoint as="offset" />
          </mxGeometry>
        </mxCell>
        <mxCell id="it1YccBrq72vr2STVT6A-61" style="edgeStyle=orthogonalEdgeStyle;rounded=0;orthogonalLoop=1;jettySize=auto;html=1;exitX=1;exitY=0.75;exitDx=0;exitDy=0;entryX=0;entryY=0.5;entryDx=0;entryDy=0;entryPerimeter=0;" edge="1" parent="1" source="it1YccBrq72vr2STVT6A-45" target="it1YccBrq72vr2STVT6A-58">
          <mxGeometry relative="1" as="geometry" />
        </mxCell>
        <mxCell id="it1YccBrq72vr2STVT6A-63" value="Real-time locomotive summary data&amp;nbsp;&lt;div&gt;to Telegram Notification&lt;/div&gt;" style="edgeLabel;html=1;align=center;verticalAlign=middle;resizable=0;points=[];" vertex="1" connectable="0" parent="1">
          <mxGeometry x="900" y="220.00001388888649" as="geometry" />
        </mxCell>
        <mxCell id="it1YccBrq72vr2STVT6A-64" value="&lt;div&gt;Telegram services:&lt;/div&gt;1. Subscriber&lt;div&gt;- 10s&lt;br&gt;&lt;/div&gt;&lt;div&gt;- 1m&lt;/div&gt;&lt;div&gt;- 15m&lt;/div&gt;&lt;div&gt;&lt;br&gt;&lt;/div&gt;&lt;div&gt;2. OR fetch latest data immediately&lt;/div&gt;" style="text;html=1;align=left;verticalAlign=middle;resizable=0;points=[];autosize=1;strokeColor=none;fillColor=none;" vertex="1" parent="1">
          <mxGeometry x="910" y="315" width="210" height="110" as="geometry" />
        </mxCell>
      </root>
    </mxGraphModel>
  </diagram>
</mxfile>
